<?xml version="1.0" standalone="no"?>
<!DOCTYPE svg PUBLIC "-//W3C//DTD SVG 20010904//EN"
 "http://www.w3.org/TR/2001/REC-SVG-20010904/DTD/svg10.dtd">
<svg version="1.0" xmlns="http://www.w3.org/2000/svg"
 width="512.000000pt" height="512.000000pt" viewBox="0 0 512.000000 512.000000"
 preserveAspectRatio="xMidYMid meet">
<metadata>
Created by potrace 1.14, written by Peter Selinger 2001-2017
</metadata>
<g transform="translate(0.000000,512.000000) scale(0.100000,-0.100000)"
fill="#000000" stroke="none">
<path d="M0 4873 c0 -135 2 -244 4 -242 2 2 41 72 86 154 45 83 86 155 90 160
4 6 31 47 59 93 l51 82 -145 0 -145 0 0 -247z"/>
<path d="M1830 5116 c0 -2 40 -11 88 -21 49 -9 95 -21 102 -25 10 -6 -19 -42
-111 -137 -209 -217 -407 -473 -549 -710 -33 -55 -68 -104 -77 -107 -9 -4
-120 -15 -247 -26 -264 -23 -314 -29 -321 -41 -7 -10 36 -22 240 -66 202 -43
235 -52 235 -62 0 -5 -21 -53 -46 -108 -94 -200 -184 -456 -239 -681 -18 -75
-33 -116 -45 -122 -9 -5 -86 -19 -170 -30 -172 -24 -215 -36 -189 -51 9 -5 86
-25 170 -44 85 -20 157 -39 162 -44 4 -4 -2 -77 -14 -162 -17 -119 -22 -220
-26 -444 l-4 -290 38 68 c84 150 194 266 313 331 l50 28 -6 -39 c-4 -29 -2
-42 10 -52 13 -11 8 -26 -44 -132 -107 -212 -135 -336 -88 -386 l21 -23 52 45
c29 25 65 49 80 55 44 17 128 12 184 -11 46 -20 51 -25 51 -54 0 -18 3 -52 6
-76 l6 -44 -98 -33 c-68 -22 -111 -43 -135 -65 -20 -18 -58 -51 -85 -74 l-49
-41 21 -29 c30 -40 94 -83 140 -93 92 -21 310 74 350 152 13 24 15 53 12 129
-3 70 0 100 8 103 16 6 28 -109 19 -176 -4 -30 -19 -68 -36 -93 -72 -107 -158
-359 -184 -538 -3 -27 -15 -69 -26 -94 -11 -25 -24 -77 -29 -116 -6 -39 -11
-72 -13 -72 -1 -1 -34 -17 -74 -35 -107 -49 -110 -52 -88 -151 9 -44 28 -115
41 -157 13 -42 22 -78 20 -79 -1 -2 -29 6 -62 18 -53 19 -76 20 -237 17 -160
-4 -179 -6 -196 -24 -17 -16 -71 -167 -71 -195 0 -5 611 -9 1636 -9 l1636 0
82 49 c105 64 120 80 111 123 -14 69 -76 270 -100 325 -32 71 -142 238 -184
277 -31 29 -32 30 -82 17 -28 -8 -105 -35 -171 -62 l-120 -48 7 27 c18 69 45
264 45 324 0 68 0 68 -38 92 -21 13 -67 38 -102 56 -36 18 -67 34 -69 36 -2 1
6 23 18 47 11 24 21 58 21 75 0 79 -107 171 -225 195 l-69 14 -18 107 c-20
122 -62 215 -110 244 -15 9 -28 22 -28 30 0 22 -56 72 -82 72 -17 0 -6 11 47
45 56 36 79 45 115 45 52 0 96 25 174 99 63 60 206 238 206 257 0 8 12 19 28
25 40 15 65 42 149 157 56 76 78 116 84 150 11 57 5 62 -78 62 l-62 0 -61 123
c-65 131 -65 140 5 117 45 -15 134 -81 162 -121 l21 -31 17 26 c10 14 23 26
30 26 17 0 119 138 153 207 23 47 24 55 13 92 -7 24 -34 65 -67 100 l-55 60
38 35 c35 31 38 39 38 88 1 79 17 98 85 98 113 0 247 -48 357 -127 41 -29 75
-53 77 -53 1 0 3 24 5 53 9 215 159 436 363 536 111 55 206 74 331 68 l97 -5
0 494 0 494 -1645 0 c-905 0 -1645 -2 -1645 -4z m2146 -937 c28 -26 30 -46 10
-94 -26 -62 -110 -84 -173 -45 -38 23 -42 49 -15 99 37 69 126 89 178 40z
m-186 -280 c-35 -49 -46 -53 -66 -23 -13 18 -11 24 22 63 37 42 37 42 56 23
20 -19 20 -20 -12 -63z m-122 -115 c18 -12 20 -19 12 -35 -13 -23 -28 -24 -51
-3 -14 13 -16 21 -8 35 12 23 18 23 47 3z m-103 -143 c18 -13 21 -21 12 -30
-15 -15 -32 -14 -47 4 -12 14 -8 45 6 45 3 0 16 -8 29 -19z m-1310 -85 c86
-42 169 -128 189 -196 20 -67 20 -103 1 -140 -8 -16 -20 -64 -25 -107 -14
-108 -40 -223 -56 -255 -20 -40 -76 -52 -205 -45 -119 7 -329 48 -365 72 -60
39 -165 223 -180 314 -5 30 -17 52 -47 81 -40 38 -40 40 -26 67 43 84 196 182
349 223 58 15 101 19 190 17 104 -2 121 -5 175 -31z m1215 -87 c0 -13 -24 -11
-38 3 -7 7 -12 18 -12 25 0 10 6 10 25 -3 14 -9 25 -20 25 -25z m-873 -395
c91 -44 142 -129 142 -239 1 -118 -79 -225 -188 -254 -19 -6 -31 -27 -63 -111
-38 -98 -49 -151 -72 -347 l-7 -52 78 -24 78 -25 -45 -12 c-36 -10 -51 -10
-75 0 -16 7 -46 11 -65 9 -19 -2 -118 -4 -218 -4 -179 0 -184 1 -202 23 -10
12 -46 105 -79 207 -61 187 -102 282 -149 345 l-26 35 34 -26 c65 -48 113
-135 165 -295 70 -223 76 -236 115 -262 33 -22 42 -23 155 -20 185 6 198 19
215 204 15 156 24 197 64 269 19 33 35 69 38 80 2 13 11 20 28 20 30 0 36 22
17 67 -12 29 -44 54 -144 112 0 1 12 50 28 111 16 60 31 136 35 168 l7 59 41
-6 c23 -4 64 -18 93 -32z m-217 -1534 c41 -11 84 -20 96 -20 20 0 22 -7 28
-107 3 -60 9 -131 12 -160 6 -46 4 -53 -19 -73 -64 -56 -107 -221 -114 -437
-6 -178 -1 -164 -73 -178 -19 -4 -52 -16 -72 -26 -21 -11 -41 -19 -45 -19 -4
0 -16 17 -26 38 -13 27 -16 49 -11 83 4 32 1 62 -10 95 -13 40 -14 56 -4 84 7
23 13 156 15 376 l5 341 66 10 c37 6 69 11 72 11 3 1 39 -7 80 -18z"/>
<path d="M717 1775 c-32 -30 -34 -55 -7 -80 16 -14 20 -15 24 -4 5 17 17 109
13 109 -1 0 -15 -11 -30 -25z"/>
<path d="M951 1042 c11 -32 23 -40 33 -23 3 4 -6 19 -19 31 l-25 24 11 -32z"/>
<path d="M800 954 c-36 -8 -89 -19 -118 -25 -30 -6 -51 -13 -49 -16 3 -2 33
-11 67 -19 l63 -14 54 37 c54 37 72 54 56 52 -4 -1 -37 -7 -73 -15z"/>
<path d="M4410 89 c-121 -5 -175 -12 -245 -32 -204 -58 -217 -56 278 -56 313
-1 447 2 447 10 0 6 -13 23 -28 39 -22 21 -41 30 -83 34 -96 11 -211 12 -369
5z"/>
</g>
</svg>
